<mxfile host="Electron" agent="Mozilla/5.0 (X11; Linux x86_64) AppleWebKit/537.36 (KHTML, like Gecko) draw.io/24.7.5 Chrome/126.0.6478.183 Electron/31.3.0 Safari/537.36" version="24.7.5">
  <diagram name="Page-1" id="Tx5V0LUoCfp16H2PDXiV">
    <mxGraphModel dx="1509" dy="882" grid="1" gridSize="10" guides="1" tooltips="1" connect="1" arrows="1" fold="1" page="1" pageScale="1" pageWidth="850" pageHeight="1100" math="0" shadow="0">
      <root>
        <mxCell id="0" />
        <mxCell id="1" parent="0" />
        <mxCell id="tN1-UIs94A9jVn-6IYNK-34" value="" style="rounded=0;whiteSpace=wrap;html=1;" vertex="1" parent="1">
          <mxGeometry x="210" y="470" width="430" height="150" as="geometry" />
        </mxCell>
        <mxCell id="tN1-UIs94A9jVn-6IYNK-15" value="PHPTERMINAL&lt;div&gt;BASE MODULE&lt;/div&gt;" style="rounded=0;whiteSpace=wrap;html=1;" vertex="1" parent="1">
          <mxGeometry x="365" y="525" width="120" height="60" as="geometry" />
        </mxCell>
        <mxCell id="tN1-UIs94A9jVn-6IYNK-38" value="" style="edgeStyle=orthogonalEdgeStyle;rounded=0;orthogonalLoop=1;jettySize=auto;html=1;startArrow=classic;startFill=1;" edge="1" parent="1" source="tN1-UIs94A9jVn-6IYNK-21" target="tN1-UIs94A9jVn-6IYNK-37">
          <mxGeometry relative="1" as="geometry" />
        </mxCell>
        <mxCell id="tN1-UIs94A9jVn-6IYNK-21" value="AUTH SERVER" style="rounded=0;whiteSpace=wrap;html=1;" vertex="1" parent="1">
          <mxGeometry x="72" y="490" width="120" height="60" as="geometry" />
        </mxCell>
        <mxCell id="tN1-UIs94A9jVn-6IYNK-40" value="" style="edgeStyle=orthogonalEdgeStyle;rounded=0;orthogonalLoop=1;jettySize=auto;html=1;startArrow=classic;startFill=1;" edge="1" parent="1" source="tN1-UIs94A9jVn-6IYNK-29" target="tN1-UIs94A9jVn-6IYNK-39">
          <mxGeometry relative="1" as="geometry" />
        </mxCell>
        <mxCell id="tN1-UIs94A9jVn-6IYNK-29" value="PHPFIREWALL&lt;div&gt;APPLICATION&lt;/div&gt;" style="rounded=0;whiteSpace=wrap;html=1;" vertex="1" parent="1">
          <mxGeometry x="660" y="490" width="120" height="60" as="geometry" />
        </mxCell>
        <mxCell id="tN1-UIs94A9jVn-6IYNK-35" value="PHPTERMINAL CORE" style="text;html=1;align=center;verticalAlign=middle;whiteSpace=wrap;rounded=0;fillColor=#f5f5f5;strokeColor=#666666;fontColor=#333333;" vertex="1" parent="1">
          <mxGeometry x="210" y="470" width="430" height="30" as="geometry" />
        </mxCell>
        <mxCell id="tN1-UIs94A9jVn-6IYNK-37" value="AUTH PLUGIN" style="rounded=0;whiteSpace=wrap;html=1;" vertex="1" parent="1">
          <mxGeometry x="230" y="505" width="120" height="30" as="geometry" />
        </mxCell>
        <mxCell id="tN1-UIs94A9jVn-6IYNK-39" value="FIREWALL MODULE" style="rounded=0;whiteSpace=wrap;html=1;" vertex="1" parent="1">
          <mxGeometry x="500" y="505" width="120" height="30" as="geometry" />
        </mxCell>
        <mxCell id="tN1-UIs94A9jVn-6IYNK-41" value="" style="edgeStyle=orthogonalEdgeStyle;rounded=0;orthogonalLoop=1;jettySize=auto;html=1;startArrow=classic;startFill=1;" edge="1" parent="1" source="tN1-UIs94A9jVn-6IYNK-42" target="tN1-UIs94A9jVn-6IYNK-43">
          <mxGeometry relative="1" as="geometry" />
        </mxCell>
        <mxCell id="tN1-UIs94A9jVn-6IYNK-42" value="SYSLOG" style="rounded=0;whiteSpace=wrap;html=1;" vertex="1" parent="1">
          <mxGeometry x="72" y="565" width="120" height="60" as="geometry" />
        </mxCell>
        <mxCell id="tN1-UIs94A9jVn-6IYNK-43" value="LOG PLUGIN" style="rounded=0;whiteSpace=wrap;html=1;" vertex="1" parent="1">
          <mxGeometry x="230" y="580" width="120" height="30" as="geometry" />
        </mxCell>
        <mxCell id="tN1-UIs94A9jVn-6IYNK-44" value="" style="edgeStyle=orthogonalEdgeStyle;rounded=0;orthogonalLoop=1;jettySize=auto;html=1;startArrow=classic;startFill=1;" edge="1" parent="1" source="tN1-UIs94A9jVn-6IYNK-45" target="tN1-UIs94A9jVn-6IYNK-46">
          <mxGeometry relative="1" as="geometry" />
        </mxCell>
        <mxCell id="tN1-UIs94A9jVn-6IYNK-45" value="TEST&lt;div&gt;APPLICATION&lt;/div&gt;" style="rounded=0;whiteSpace=wrap;html=1;" vertex="1" parent="1">
          <mxGeometry x="660" y="565" width="120" height="60" as="geometry" />
        </mxCell>
        <mxCell id="tN1-UIs94A9jVn-6IYNK-46" value="TEST MODULE" style="rounded=0;whiteSpace=wrap;html=1;" vertex="1" parent="1">
          <mxGeometry x="500" y="580" width="120" height="30" as="geometry" />
        </mxCell>
      </root>
    </mxGraphModel>
  </diagram>
</mxfile>
